<svg xmlns="http://www.w3.org/2000/svg" viewBox="0 0 24 24" width="100" height="100">
  <path d="M12 1.03C6.48 1.53 2 6.64 2 12c0 4.42 3.58 8 8 8s8-3.58 8-8c0-1.42-.37-2.75-1-3.9-.3.36-.66.67-1.07.94-1.26.92-2.75 1.56-4.35 1.94-.16.04-.33.06-.5.06-.43 0-.85-.11-1.24-.32-1.05-.54-1.86-1.48-2.22-2.64-.08-.29-.12-.6-.12-.91 0-1.66 1.34-3 3-3 .84 0 1.59.35 2.13.92C11.07 5.47 11.53 5 12 5c.64 0 1.24.28 1.66.76.25-.25.58-.42.94-.53.47-.15.98-.23 1.51-.23 2.21 0 4 1.79 4 4 0 .78-.23 1.51-.63 2.12-.03.04-.06.08-.1.12-.37.39-.8.69-1.27.9-.48.21-1 .33-1.56.33-.77 0-1.5-.26-2.1-.73-.13-.1-.26-.2-.39-.3-.38-.28-.75-.59-1.1-.93-.38-.37-.73-.76-1.06-1.18-.25-.31-.49-.63-.71-.97-.09-.15-.17-.3-.25-.45-.32-.62-.55-1.29-.68-1.99-.03-.17-.05-.34-.07-.51-.13-1.03-.13-2.08 0-3.1C14.39 2.03 13.22 1.22 12 1.03zM12 3c-.81 0-1.55.25-2.17.68C8.6 4.25 8 5.11 8 6c0 .46.09.91.26 1.33.12.29.25.58.41.86.18.3.38.59.6.87.17.22.35.43.54.63.2.19.4.38.62.56.35.28.72.54 1.12.76.33.2.68.36 1.05.49.38.13.78.22 1.18.27.6.07 1.18.07 1.77 0 .4-.05.8-.14 1.18-.27.37-.14.72-.3 1.05-.49.4-.22.77-.48 1.12-.76.22-.18.42-.37.62-.56.19-.2.37-.41.54-.63.22-.28.42-.57.6-.87.16-.28.29-.57.41-.86.17-.42.26-.87.26-1.33 0-1.1-.6-1.86-1.83-2.32C13.55 3.25 12.8 3 12 3z"/>
</svg>
